<svg width="30" height="30" viewBox="0 0 30 30" fill="none" xmlns="http://www.w3.org/2000/svg">
<path d="M15 30C12.925 30 10.975 29.6063 9.15 28.8188C7.325 28.0312 5.7375 26.9625 4.3875 25.6125C3.0375 24.2625 1.96875 22.675 1.18125 20.85C0.39375 19.025 0 17.075 0 15C0 12.925 0.39375 10.975 1.18125 9.15C1.96875 7.325 3.0375 5.7375 4.3875 4.3875C5.7375 3.0375 7.325 1.96875 9.15 1.18125C10.975 0.39375 12.925 0 15 0C17.075 0 19.025 0.39375 20.85 1.18125C22.675 1.96875 24.2625 3.0375 25.6125 4.3875C26.9625 5.7375 28.0312 7.325 28.8188 9.15C29.6063 10.975 30 12.925 30 15C30 17.075 29.6063 19.025 28.8188 20.85C28.0312 22.675 26.9625 24.2625 25.6125 25.6125C24.2625 26.9625 22.675 28.0312 20.85 28.8188C19.025 29.6063 17.075 30 15 30ZM22.5 11.25L24.525 10.575L25.125 8.55C24.325 7.35 23.3625 6.31875 22.2375 5.45625C21.1125 4.59375 19.875 3.95 18.525 3.525L16.5 4.95V7.05L22.5 11.25ZM7.5 11.25L13.5 7.05V4.95L11.475 3.525C10.125 3.95 8.8875 4.59375 7.7625 5.45625C6.6375 6.31875 5.675 7.35 4.875 8.55L5.475 10.575L7.5 11.25ZM5.925 22.8L7.65 22.65L8.775 20.625L6.6 14.1L4.5 13.35L3 14.475C3 16.1 3.225 17.5813 3.675 18.9188C4.125 20.2563 4.875 21.55 5.925 22.8ZM15 27C15.65 27 16.2875 26.95 16.9125 26.85C17.5375 26.75 18.15 26.6 18.75 26.4L19.8 24.15L18.825 22.5H11.175L10.2 24.15L11.25 26.4C11.85 26.6 12.4625 26.75 13.0875 26.85C13.7125 26.95 14.35 27 15 27ZM11.625 19.5H18.375L20.475 13.5L15 9.675L9.6 13.5L11.625 19.5ZM24.075 22.8C25.125 21.55 25.875 20.2563 26.325 18.9188C26.775 17.5813 27 16.1 27 14.475L25.5 13.425L23.4 14.1L21.225 20.625L22.35 22.65L24.075 22.8Z" fill="#ADC6FF"/>
</svg>
